<svg width="84" height="29" xmlns="http://www.w3.org/2000/svg">

 <g>
  <title>Layer 1</title>
  <g stroke="null" id="svg_1" fill="#FF3901">
   <g stroke="null" id="svg_2" fill="#FF3901">
    <path stroke="null" id="svg_3" fill="#FF3901" d="m24.06829,20.239l-8.841,-20.053l-1.78,0l-8.819,20.8c-0.981,2.094 -2.144,3.792 -4.444,3.969l0,0.178l9.205,0l0,-0.178c-3,-0.406 -5.071,-0.912 -3.367,-5.149l2.684,-6.434l8.941,0l2.645,6.233c1.893,4.429 0.836,4.928 -2.229,5.35l0,0.178l10.881,0l0,-0.178c-2.866,-0.343 -3.88,-2.454 -4.876,-4.716zm-15.059,-7.578l4.129,-9.705l0.089,0l4.118,9.705l-8.336,0z"/>
    <path stroke="null" id="svg_4" fill="#FF3901" d="m47.77629,0.365c3,0.406 4.576,0.875 4.576,5.168l0,14.324l-0.09,0l-15.677,-19.67l-5.767,0l0,0.178c2.213,0.295 2.871,2.012 2.871,4.345l0,15.436c0,3.022 -0.558,4.572 -3.23,4.811l0,0.179l8.524,0l0,-0.179c-3,-0.406 -4.576,-0.875 -4.576,-5.168l0,-17.44l0.089,0l18.2,22.965l0.369,0l0,-20.138c0,-3.022 0.557,-4.572 3.23,-4.811l0,-0.178l-8.524,0l0.005,0.178z"/>
    <path stroke="null" id="svg_5" fill="#FF3901" d="m69.48229,0.187l-9.849,0l0,0.178c2.672,0.239 3.23,1.789 3.23,4.811l0,15.854c-0.118,2.442 -0.832,3.713 -3.23,3.927l0,0.179l9.849,0c8.855,0 14.394,-4.04 14.394,-12.589s-5.539,-12.36 -14.394,-12.36zm-0.466,24.236l-3.123,0l0,-23.524l3.123,0c6.651,0 11.133,3.667 11.133,11.648s-4.482,11.876 -11.133,11.876z"/>
   </g>
   <g stroke="null" id="svg_6" fill="#FF3901">
    <path stroke="null" id="svg_7" fill="#FF3901" d="m102.11829,20.623l-0.09,0l-8.71,-20.436l-6.055,0l0,0.178c2.2,0.295 2.851,2.012 2.852,4.345l0,15.436c0,3.022 -0.554,4.572 -3.209,4.812l0,0.178l8.467,0l0,-0.178c-2.978,-0.406 -4.545,-0.876 -4.545,-5.169l0,-17.336l0.094,0l9.907,22.861l0.357,0l9.42,-22.861l0.09,0l0,17.336c0,4.293 -1.567,4.763 -4.546,5.169l0,0.178l10.785,0l0,-0.179c-2.655,-0.239 -3.209,-1.789 -3.209,-4.811l0,-14.97c0,-3.022 0.554,-4.572 3.209,-4.811l0,-0.178l-6.381,0l-8.436,20.436z"/>
    <path stroke="null" id="svg_8" fill="#FF3901" d="m142.33429,20.239l-8.837,-20.052l-1.785,0l-8.818,20.8c-0.981,2.094 -2.144,3.792 -4.444,3.97l0,0.178l9.205,0l0,-0.178c-3,-0.406 -5.071,-0.912 -3.367,-5.15l2.684,-6.434l8.941,0l2.645,6.234c1.893,4.428 0.836,4.927 -2.23,5.35l0,0.178l10.881,0l0,-0.178c-2.866,-0.345 -3.882,-2.456 -4.875,-4.718zm-15.059,-7.578l4.129,-9.7l0.088,0l4.118,9.7l-8.335,0z"/>
    <path stroke="null" id="svg_9" fill="#FF3901" d="m200.01629,24.448a2.629,2.629 0 0 1 -2.678,2.208c-1.988,0 -2.981,-1.313 -4.249,-2.953a12.842,12.842 0 0 0 6.363,-11.026a12.4,12.4 0 1 0 -12.4,12.678a11.814,11.814 0 0 0 3.589,-0.561c1.438,2.295 2.846,4.132 5.745,4.132c2.063,0 3.767,-1.9 3.732,-4.478l-0.102,0zm-12.96,0.192a8.413,8.413 0 0 1 -4.177,-0.994c0.343,-1.976 1.711,-3.455 3.416,-3.455c2.124,0 2.844,1.932 3.93,3.924a9.086,9.086 0 0 1 -3.169,0.525zm5.372,-1.842c-1.223,-1.96 -2.4,-4.313 -5.271,-4.313s-4.438,2.556 -4.842,4.811c-2.479,-1.727 -4.034,-5.17 -4.034,-10.619c0,-8.32 3.452,-11.963 8.775,-11.963s8.775,3.643 8.775,11.963c-0.004,4.969 -1.315,8.268 -3.404,10.121l0.001,0z"/>
    <path stroke="null" id="svg_10" fill="#FF3901" d="m169.02729,20.146l0,-7.485l-4.4,0l0,-0.089c3.288,-0.95 5.342,-2.925 5.342,-5.921c0,-3.736 -2.927,-6.464 -9.271,-6.464l-11.971,0l0,0.178c2.655,0.239 3.209,1.789 3.209,4.812l0,15.853c-0.117,2.442 -0.826,3.713 -3.209,3.928l0,0.178l10.339,0l0,-0.178c-2.978,-0.406 -4.1,-0.876 -4.1,-5.168l0,-6.416l11.032,0l0,6.416c0,4.292 -1.121,4.762 -4.1,5.168l0,0.178l10.34,0l0,-0.178c-2.657,-0.24 -3.211,-1.79 -3.211,-4.812zm-14.063,-7.485l0,-11.761l4.789,0c4.167,0 6.6,2.083 6.6,5.623c0,3.637 -2.49,6.138 -7.6,6.138l-3.789,0z"/>
   </g>
  </g>
 </g>
</svg>